<svg xmlns="http://www.w3.org/2000/svg" version="1.1" width="1024" height="680">
<rect x="0" y="0" width="1024" height="680" fill="#91968e" />
<g transform="scale(4.000000) translate(0.5 0.5)">
<polygon fill="#050002" fill-opacity="0.501961" points="176,59 121,103 101,52" />
<polygon fill="#2f2d00" fill-opacity="0.501961" points="223,78 106,115 227,116" />
<polygon fill="#b9cfdd" fill-opacity="0.501961" points="-16,67 6,-16 181,30" />
<polygon fill="#ae4945" fill-opacity="0.501961" points="25,117 34,59 89,81" />
<polygon fill="#b1c1bd" fill-opacity="0.501961" points="61,185 -4,-16 -4,176" />
<polygon fill="#0d1900" fill-opacity="0.501961" points="226,109 198,114 205,70" />
<polygon fill="#a5a7a5" fill-opacity="0.501961" points="98,-16 183,110 226,39" />
<polygon fill="#251f27" fill-opacity="0.501961" points="145,51 100,74 153,102" />
<polygon fill="#f2edfe" fill-opacity="0.501961" points="86,91 107,99 78,127" />
<polygon fill="#7a7e5b" fill-opacity="0.501961" points="254,35 271,185 207,185" />
<polygon fill="#e1a849" fill-opacity="0.501961" points="146,118 129,95 205,121" />
<polygon fill="#337a3d" fill-opacity="0.501961" points="86,53 40,75 23,57" />
<polygon fill="#625351" fill-opacity="0.501961" points="150,94 61,88 185,60" />
<polygon fill="#00170b" fill-opacity="0.501961" points="72,114 58,121 70,99" />
<polygon fill="#a2aaaa" fill-opacity="0.501961" points="63,-16 73,101 171,7" />
<polygon fill="#ebd8d7" fill-opacity="0.501961" points="240,61 186,77 182,60" />
<polygon fill="#9caca0" fill-opacity="0.501961" points="93,185 12,115 229,119" />
<polygon fill="#07237e" fill-opacity="0.501961" points="115,118 119,101 147,115" />
<polygon fill="#000001" fill-opacity="0.501961" points="144,81 117,54 149,55" />
<polygon fill="#f1b894" fill-opacity="0.501961" points="37,60 64,99 52,61" />
<polygon fill="#8d3938" fill-opacity="0.501961" points="20,101 28,121 49,79" />
<polygon fill="#ebddea" fill-opacity="0.501961" points="178,108 165,69 177,79" />
<polygon fill="#761a2e" fill-opacity="0.501961" points="183,84 207,70 216,88" />
<polygon fill="#6c6f54" fill-opacity="0.501961" points="216,3 271,48 252,-16" />
<polygon fill="#d9ead9" fill-opacity="0.501961" points="152,77 151,54 145,80" />
<polygon fill="#36363c" fill-opacity="0.501961" points="81,83 102,95 80,61" />
<polygon fill="#230107" fill-opacity="0.501961" points="64,82 62,54 70,54" />
<polygon fill="#904d00" fill-opacity="0.501961" points="183,103 182,119 141,112" />
<polygon fill="#fdd8b2" fill-opacity="0.501961" points="127,94 149,94 130,108" />
<polygon fill="#e9d8e0" fill-opacity="0.501961" points="191,122 182,123 185,99" />
<polygon fill="#9a5400" fill-opacity="0.501961" points="68,130 82,149 101,156" />
<polygon fill="#fbd4da" fill-opacity="0.501961" points="79,59 74,87 67,61" />
<polygon fill="#ddbacc" fill-opacity="0.501961" points="213,89 229,59 228,82" />
<polygon fill="#422838" fill-opacity="0.501961" points="47,66 26,70 39,84" />
<polygon fill="#b9c1d0" fill-opacity="0.501961" points="81,89 104,82 100,62" />
<polygon fill="#9db1b2" fill-opacity="0.501961" points="168,52 93,-16 109,55" />
<polygon fill="#f8e9f7" fill-opacity="0.501961" points="229,112 212,122 230,121" />
<polygon fill="#002339" fill-opacity="0.501961" points="185,113 170,99 144,99" />
<polygon fill="#4b3535" fill-opacity="0.501961" points="79,49 89,57 56,60" />
<polygon fill="#d6bca6" fill-opacity="0.501961" points="93,115 122,106 104,83" />
<polygon fill="#b1c0cc" fill-opacity="0.501961" points="21,-16 -16,44 63,60" />
<polygon fill="#13120b" fill-opacity="0.501961" points="89,87 101,83 97,98" />
<polygon fill="#14132a" fill-opacity="0.501961" points="135,67 119,92 120,120" />
<polygon fill="#179a5b" fill-opacity="0.501961" points="49,121 27,113 19,119" />
<polygon fill="#d56966" fill-opacity="0.501961" points="58,118 21,82 60,85" />
<polygon fill="#053f78" fill-opacity="0.501961" points="99,76 107,78 105,50" />
<polygon fill="#fff2fd" fill-opacity="0.501961" points="159,85 155,94 176,85" />
<polygon fill="#544944" fill-opacity="0.501961" points="151,73 174,75 143,99" />
<polygon fill="#c4becc" fill-opacity="0.501961" points="44,83 78,106 78,93" />
<polygon fill="#56570b" fill-opacity="0.501961" points="156,56 177,61 151,70" />
<polygon fill="#624100" fill-opacity="0.501961" points="73,92 61,88 83,82" />
<polygon fill="#403030" fill-opacity="0.501961" points="172,91 174,108 160,91" />
<polygon fill="#892022" fill-opacity="0.501961" points="37,82 34,105 48,112" />
<polygon fill="#f5bbc7" fill-opacity="0.501961" points="53,93 40,104 44,88" />
<polygon fill="#2e671e" fill-opacity="0.501961" points="189,116 187,98 215,117" />
<polygon fill="#a18655" fill-opacity="0.501961" points="113,109 103,89 111,55" />
<polygon fill="#408bc4" fill-opacity="0.501961" points="153,115 127,122 105,114" />
<polygon fill="#00af74" fill-opacity="0.501961" points="34,58 18,56 33,66" />
<polygon fill="#818878" fill-opacity="0.501961" points="231,128 229,-3 264,44" />
<polygon fill="#e1d8e3" fill-opacity="0.501961" points="84,60 105,62 95,52" />
<polygon fill="#e88925" fill-opacity="0.501961" points="143,104 142,90 148,80" />
<polygon fill="#00a74a" fill-opacity="0.501961" points="64,118 45,119 59,122" />
<polygon fill="#a1b0af" fill-opacity="0.501961" points="64,-10 131,-16 122,65" />
<polygon fill="#0b392c" fill-opacity="0.501961" points="74,114 63,96 64,116" />
<polygon fill="#060107" fill-opacity="0.501961" points="112,79 112,56 121,80" />
<polygon fill="#1a1322" fill-opacity="0.501961" points="84,93 77,96 83,101" />
<polygon fill="#d5d6e4" fill-opacity="0.501961" points="79,84 100,100 100,121" />
<polygon fill="#803100" fill-opacity="0.501961" points="117,185 105,155 108,184" />
<polygon fill="#d8cfe4" fill-opacity="0.501961" points="187,123 215,121 184,114" />
<polygon fill="#b2bfc6" fill-opacity="0.501961" points="-11,-16 24,43 4,144" />
<polygon fill="#a7bdc4" fill-opacity="0.501961" points="66,122 83,144 83,109" />
<polygon fill="#ecabb5" fill-opacity="0.501961" points="23,70 35,84 24,100" />
<polygon fill="#995300" fill-opacity="0.501961" points="96,169 94,152 91,170" />
<polygon fill="#ccbd95" fill-opacity="0.501961" points="165,108 126,97 128,108" />
<polygon fill="#fda20a" fill-opacity="0.501961" points="44,66 55,62 29,59" />
<polygon fill="#4e1916" fill-opacity="0.501961" points="91,69 89,60 96,63" />
<polygon fill="#939f9c" fill-opacity="0.501961" points="190,185 73,113 220,126" />
<polygon fill="#6f3a06" fill-opacity="0.501961" points="250,82 238,73 229,74" />
<polygon fill="#1e6219" fill-opacity="0.501961" points="225,95 226,115 189,104" />
<polygon fill="#b88400" fill-opacity="0.501961" points="184,123 183,111 147,107" />
<polygon fill="#9c868f" fill-opacity="0.501961" points="169,64 193,100 201,85" />
<polygon fill="#1e697b" fill-opacity="0.501961" points="143,106 153,89 151,67" />
<polygon fill="#d3b27d" fill-opacity="0.501961" points="61,105 62,118 26,116" />
<polygon fill="#4a2728" fill-opacity="0.501961" points="184,101 181,112 178,89" />
<polygon fill="#dcc1da" fill-opacity="0.501961" points="51,79 46,68 58,67" />
<polygon fill="#090015" fill-opacity="0.501961" points="207,117 204,94 212,82" />
<polygon fill="#020811" fill-opacity="0.501961" points="96,58 104,57 105,52" />
<polygon fill="#a6beb5" fill-opacity="0.501961" points="49,185 77,142 105,185" />
<polygon fill="#a99b9d" fill-opacity="0.501961" points="130,73 122,70 124,80" />
<polygon fill="#00ac62" fill-opacity="0.501961" points="60,67 60,59 50,67" />
<polygon fill="#965b0d" fill-opacity="0.501961" points="63,146 64,157 57,169" />
<polygon fill="#919f96" fill-opacity="0.501961" points="130,40 256,48 138,-8" />
<polygon fill="#d7d9e7" fill-opacity="0.501961" points="105,71 97,66 84,80" />
<polygon fill="#38353a" fill-opacity="0.501961" points="90,77 99,79 87,81" />
<polygon fill="#80450d" fill-opacity="0.501961" points="121,149 108,157 113,150" />
<polygon fill="#ad9497" fill-opacity="0.501961" points="153,94 173,103 155,79" />
<polygon fill="#2b2d2c" fill-opacity="0.501961" points="149,86 154,92 143,110" />
<polygon fill="#222136" fill-opacity="0.501961" points="81,111 81,103 77,109" />
<polygon fill="#f0eaf9" fill-opacity="0.501961" points="73,109 72,97 78,105" />
<polygon fill="#85805e" fill-opacity="0.501961" points="271,145 215,143 207,123" />
</g>
</svg>