<svg xmlns="http://www.w3.org/2000/svg" version="1.1" width="768" height="1024">
<rect x="0" y="0" width="768" height="1024" fill="#4d533d" />
<g transform="scale(4.000000) translate(0.5 0.5)">
<polygon fill="#ffffff" fill-opacity="0.501961" points="67,271 77,179 143,222" />
<polygon fill="#ffd9d4" fill-opacity="0.501961" points="117,265 39,271 121,185" />
<polygon fill="#131e1a" fill-opacity="0.501961" points="98,24 207,245 131,271" />
<polygon fill="#ffe8e7" fill-opacity="0.501961" points="97,141 69,119 101,101" />
<polygon fill="#14221b" fill-opacity="0.501961" points="-2,271 -16,111 60,253" />
<polygon fill="#222524" fill-opacity="0.501961" points="22,92 63,181 91,55" />
<polygon fill="#ffc0b8" fill-opacity="0.501961" points="129,202 110,271 70,183" />
<polygon fill="#2a2b28" fill-opacity="0.501961" points="44,170 152,102 151,204" />
<polygon fill="#677c43" fill-opacity="0.501961" points="154,23 23,12 23,83" />
<polygon fill="#384829" fill-opacity="0.501961" points="194,-16 115,255 195,200" />
<polygon fill="#1c2724" fill-opacity="0.501961" points="114,38 141,131 65,83" />
<polygon fill="#485733" fill-opacity="0.501961" points="81,211 -16,59 50,269" />
<polygon fill="#bba89b" fill-opacity="0.501961" points="74,130 103,139 109,107" />
<polygon fill="#647146" fill-opacity="0.501961" points="170,132 75,-16 183,74" />
<polygon fill="#2f4121" fill-opacity="0.501961" points="189,-16 117,4 207,68" />
<polygon fill="#ecbab0" fill-opacity="0.501961" points="81,215 127,271 59,253" />
<polygon fill="#dfe2e3" fill-opacity="0.501961" points="95,119 105,107 86,107" />
<polygon fill="#c76e4b" fill-opacity="0.501961" points="92,195 120,196 68,178" />
<polygon fill="#2d312b" fill-opacity="0.501961" points="158,127 80,141 138,222" />
<polygon fill="#cbc2bc" fill-opacity="0.501961" points="85,108 91,140 76,128" />
<polygon fill="#e3c1b8" fill-opacity="0.501961" points="118,192 127,214 88,242" />
<polygon fill="#243126" fill-opacity="0.501961" points="207,271 207,83 155,261" />
<polygon fill="#172120" fill-opacity="0.501961" points="66,129 82,165 105,150" />
<polygon fill="#3f4638" fill-opacity="0.501961" points="70,180 40,271 79,215" />
<polygon fill="#5e6d42" fill-opacity="0.501961" points="13,108 43,197 53,152" />
<polygon fill="#937e84" fill-opacity="0.501961" points="131,63 110,32 122,36" />
<polygon fill="#89715f" fill-opacity="0.501961" points="111,111 107,133 90,121" />
<polygon fill="#5d634e" fill-opacity="0.501961" points="43,116 3,44 21,28" />
<polygon fill="#222326" fill-opacity="0.501961" points="149,118 135,68 151,95" />
<polygon fill="#8f7870" fill-opacity="0.501961" points="129,68 140,86 140,107" />
<polygon fill="#3c4531" fill-opacity="0.501961" points="137,181 207,146 112,271" />
<polygon fill="#182122" fill-opacity="0.501961" points="110,114 103,52 86,54" />
<polygon fill="#e3c3bf" fill-opacity="0.501961" points="82,271 79,191 118,245" />
<polygon fill="#35392e" fill-opacity="0.501961" points="72,195 48,157 77,100" />
<polygon fill="#111c20" fill-opacity="0.501961" points="45,196 53,215 50,172" />
<polygon fill="#534e41" fill-opacity="0.501961" points="149,129 134,88 138,141" />
<polygon fill="#3a4432" fill-opacity="0.501961" points="39,105 102,105 97,84" />
<polygon fill="#3c4a2b" fill-opacity="0.501961" points="26,199 -16,146 4,76" />
<polygon fill="#5d5549" fill-opacity="0.501961" points="85,70 39,86 63,87" />
<polygon fill="#607040" fill-opacity="0.501961" points="167,154 163,50 136,54" />
<polygon fill="#5f6b4b" fill-opacity="0.501961" points="63,215 58,173 78,213" />
<polygon fill="#d4d5d2" fill-opacity="0.501961" points="76,121 102,131 79,114" />
<polygon fill="#c2825d" fill-opacity="0.501961" points="48,271 73,227 65,263" />
<polygon fill="#607041" fill-opacity="0.501961" points="77,2 57,30 159,38" />
<polygon fill="#465338" fill-opacity="0.501961" points="183,-16 -16,-13 4,36" />
<polygon fill="#50493d" fill-opacity="0.501961" points="43,116 102,186 67,170" />
<polygon fill="#4a5639" fill-opacity="0.501961" points="137,217 155,165 166,211" />
<polygon fill="#4b5b34" fill-opacity="0.501961" points="101,-16 193,53 128,51" />
<polygon fill="#966553" fill-opacity="0.501961" points="77,106 108,127 87,120" />
<polygon fill="#29312a" fill-opacity="0.501961" points="70,68 118,44 138,99" />
<polygon fill="#837358" fill-opacity="0.501961" points="85,141 104,137 77,132" />
<polygon fill="#d7a393" fill-opacity="0.501961" points="84,187 72,181 81,215" />
<polygon fill="#54643d" fill-opacity="0.501961" points="80,91 98,95 93,74" />
<polygon fill="#c2c0b9" fill-opacity="0.501961" points="83,109 105,109 102,122" />
<polygon fill="#5f6f40" fill-opacity="0.501961" points="112,64 116,86 109,72" />
<polygon fill="#2c312c" fill-opacity="0.501961" points="48,86 79,114 94,84" />
<polygon fill="#232e28" fill-opacity="0.501961" points="44,235 4,271 -13,191" />
<polygon fill="#34372d" fill-opacity="0.501961" points="142,238 142,148 116,186" />
<polygon fill="#4a5a32" fill-opacity="0.501961" points="179,170 155,147 183,60" />
<polygon fill="#4f6134" fill-opacity="0.501961" points="10,70 12,144 36,44" />
<polygon fill="#647640" fill-opacity="0.501961" points="52,72 86,58 38,34" />
<polygon fill="#282e27" fill-opacity="0.501961" points="98,126 153,116 132,137" />
<polygon fill="#5a6357" fill-opacity="0.501961" points="40,12 -8,68 18,65" />
<polygon fill="#e2bcb5" fill-opacity="0.501961" points="83,189 127,210 110,259" />
<polygon fill="#101a21" fill-opacity="0.501961" points="30,139 44,144 45,140" />
<polygon fill="#000e13" fill-opacity="0.501961" points="31,126 36,126 24,118" />
<polygon fill="#8d7e6d" fill-opacity="0.501961" points="137,107 145,97 133,105" />
<polygon fill="#948b78" fill-opacity="0.501961" points="142,137 137,132 141,131" />
<polygon fill="#d2a89b" fill-opacity="0.501961" points="81,212 75,253 55,271" />
<polygon fill="#5f6c43" fill-opacity="0.501961" points="66,18 154,47 108,0" />
<polygon fill="#394231" fill-opacity="0.501961" points="48,265 7,160 66,236" />
<polygon fill="#2a362a" fill-opacity="0.501961" points="207,254 105,269 144,212" />
<polygon fill="#647346" fill-opacity="0.501961" points="48,141 1,125 33,127" />
<polygon fill="#968a77" fill-opacity="0.501961" points="99,134 111,115 99,105" />
<polygon fill="#262e29" fill-opacity="0.501961" points="147,135 168,168 85,171" />
<polygon fill="#8a7873" fill-opacity="0.501961" points="126,47 135,78 125,62" />
<polygon fill="#647046" fill-opacity="0.501961" points="54,164 30,160 38,188" />
<polygon fill="#4b5d32" fill-opacity="0.501961" points="100,53 73,46 116,30" />
<polygon fill="#1d2b25" fill-opacity="0.501961" points="65,161 46,156 70,184" />
<polygon fill="#2c322d" fill-opacity="0.501961" points="167,47 158,53 142,50" />
<polygon fill="#637142" fill-opacity="0.501961" points="56,194 52,174 65,175" />
<polygon fill="#d4d6d6" fill-opacity="0.501961" points="85,109 90,106 99,118" />
<polygon fill="#373537" fill-opacity="0.501961" points="129,47 131,64 141,75" />
<polygon fill="#242a27" fill-opacity="0.501961" points="128,215 144,153 148,194" />
<polygon fill="#202b27" fill-opacity="0.501961" points="104,57 141,149 100,99" />
<polygon fill="#443d31" fill-opacity="0.501961" points="72,177 108,192 140,175" />
<polygon fill="#6c563e" fill-opacity="0.501961" points="123,202 119,192 132,198" />
<polygon fill="#e1b1a6" fill-opacity="0.501961" points="124,212 110,217 119,244" />
<polygon fill="#312f2c" fill-opacity="0.501961" points="31,80 39,89 54,72" />
<polygon fill="#4c533a" fill-opacity="0.501961" points="124,220 142,230 122,234" />
<polygon fill="#5b6647" fill-opacity="0.501961" points="81,96 86,81 89,90" />
<polygon fill="#53683b" fill-opacity="0.501961" points="49,98 48,92 69,100" />
<polygon fill="#32392e" fill-opacity="0.501961" points="36,110 24,74 24,120" />
<polygon fill="#5d703e" fill-opacity="0.501961" points="28,109 20,116 16,80" />
<polygon fill="#677945" fill-opacity="0.501961" points="145,85 133,49 158,60" />
<polygon fill="#30372b" fill-opacity="0.501961" points="42,105 80,161 75,114" />
<polygon fill="#313236" fill-opacity="0.501961" points="123,37 129,49 138,48" />
<polygon fill="#272e28" fill-opacity="0.501961" points="156,131 141,111 147,90" />
<polygon fill="#1a2623" fill-opacity="0.501961" points="78,83 100,84 90,88" />
<polygon fill="#333f2a" fill-opacity="0.501961" points="189,0 207,48 149,9" />
</g>
</svg>