<svg xmlns="http://www.w3.org/2000/svg" version="1.1" width="1024" height="680">
<rect x="0" y="0" width="1024" height="680" fill="#8e8e8f" />
<g transform="scale(4.000000) translate(0.5 0.5)">
<polygon fill="#ffffff" fill-opacity="0.501961" points="260,-16 -16,0 255,105" />
<polygon fill="#000000" fill-opacity="0.501961" points="66,185 190,184 137,23" />
<polygon fill="#000000" fill-opacity="0.501961" points="-16,-16 25,41 4,173" />
<polygon fill="#230000" fill-opacity="0.501961" points="72,115 115,57 212,116" />
<polygon fill="#d8dfe3" fill-opacity="0.501961" points="137,41 -7,-16 59,107" />
<polygon fill="#e9f4fe" fill-opacity="0.501961" points="271,105 171,103 185,-16" />
<polygon fill="#000000" fill-opacity="0.501961" points="84,179 157,185 162,58" />
<polygon fill="#000000" fill-opacity="0.501961" points="-8,88 92,114 -16,115" />
<polygon fill="#000000" fill-opacity="0.501961" points="235,120 271,104 185,106" />
<polygon fill="#a5b1b5" fill-opacity="0.501961" points="271,112 182,165 148,125" />
<polygon fill="#000000" fill-opacity="0.501961" points="23,49 4,120 -7,-15" />
<polygon fill="#a32b13" fill-opacity="0.501961" points="86,80 137,42 175,87" />
<polygon fill="#b1bdbe" fill-opacity="0.501961" points="93,115 109,129 67,185" />
<polygon fill="#ebf8ff" fill-opacity="0.501961" points="37,108 35,29 16,83" />
<polygon fill="#f4ffff" fill-opacity="0.501961" points="43,98 88,103 88,56" />
<polygon fill="#dee6ee" fill-opacity="0.501961" points="111,50 234,-16 271,82" />
<polygon fill="#150000" fill-opacity="0.501961" points="107,129 187,107 86,80" />
<polygon fill="#9ba5aa" fill-opacity="0.501961" points="22,43 153,30 135,-16" />
<polygon fill="#0c1c15" fill-opacity="0.501961" points="39,83 39,97 69,68" />
<polygon fill="#374648" fill-opacity="0.501961" points="-11,172 14,117 26,184" />
<polygon fill="#000000" fill-opacity="0.501961" points="142,47 136,52 133,28" />
<polygon fill="#a1a8aa" fill-opacity="0.501961" points="133,138 172,114 244,134" />
<polygon fill="#a2aeaf" fill-opacity="0.501961" points="15,139 82,117 131,137" />
<polygon fill="#0e0300" fill-opacity="0.501961" points="163,69 172,99 129,152" />
<polygon fill="#f5feff" fill-opacity="0.501961" points="-15,2 110,-16 65,17" />
<polygon fill="#000000" fill-opacity="0.501961" points="133,-13 134,11 120,-15" />
<polygon fill="#ced4d7" fill-opacity="0.501961" points="172,105 271,102 167,14" />
<polygon fill="#010507" fill-opacity="0.501961" points="92,138 161,140 119,185" />
<polygon fill="#120000" fill-opacity="0.501961" points="212,115 271,115 250,104" />
<polygon fill="#000002" fill-opacity="0.501961" points="-16,70 15,20 18,109" />
<polygon fill="#515751" fill-opacity="0.501961" points="51,50 74,55 64,37" />
<polygon fill="#000000" fill-opacity="0.501961" points="34,107 44,90 41,116" />
<polygon fill="#b1573b" fill-opacity="0.501961" points="165,63 117,51 92,71" />
<polygon fill="#d2d7db" fill-opacity="0.501961" points="97,3 134,11 85,86" />
<polygon fill="#dae4e9" fill-opacity="0.501961" points="19,99 20,55 40,92" />
<polygon fill="#12100c" fill-opacity="0.501961" points="154,104 61,104 143,132" />
<polygon fill="#6b787a" fill-opacity="0.501961" points="88,138 95,185 -16,146" />
<polygon fill="#560b04" fill-opacity="0.501961" points="91,110 161,64 90,80" />
<polygon fill="#e0e7ed" fill-opacity="0.501961" points="184,-5 141,47 175,76" />
<polygon fill="#6d787b" fill-opacity="0.501961" points="152,12 157,-2 175,14" />
<polygon fill="#838d91" fill-opacity="0.501961" points="271,172 163,114 177,185" />
<polygon fill="#434c47" fill-opacity="0.501961" points="44,72 16,57 22,51" />
<polygon fill="#48544b" fill-opacity="0.501961" points="80,50 67,72 58,71" />
<polygon fill="#1c2a27" fill-opacity="0.501961" points="36,80 40,61 44,100" />
<polygon fill="#e7f1f7" fill-opacity="0.501961" points="71,56 40,67 47,80" />
<polygon fill="#1f140d" fill-opacity="0.501961" points="81,115 207,114 134,93" />
<polygon fill="#c2c6cb" fill-opacity="0.501961" points="232,42 210,105 266,105" />
<polygon fill="#000708" fill-opacity="0.501961" points="119,136 101,115 155,134" />
<polygon fill="#141d1a" fill-opacity="0.501961" points="99,6 112,1 107,-1" />
<polygon fill="#989e9f" fill-opacity="0.501961" points="88,59 47,23 99,31" />
<polygon fill="#cfd7dd" fill-opacity="0.501961" points="87,102 43,105 93,49" />
<polygon fill="#a9b5ac" fill-opacity="0.501961" points="73,107 79,111 92,108" />
<polygon fill="#9fa5aa" fill-opacity="0.501961" points="160,116 268,117 231,160" />
<polygon fill="#586260" fill-opacity="0.501961" points="29,96 16,107 67,106" />
<polygon fill="#ecf5fc" fill-opacity="0.501961" points="39,74 17,62 26,59" />
<polygon fill="#4d1612" fill-opacity="0.501961" points="171,89 162,67 85,91" />
<polygon fill="#ecf2f7" fill-opacity="0.501961" points="134,53 103,28 132,34" />
<polygon fill="#a0acae" fill-opacity="0.501961" points="24,118 98,115 11,143" />
<polygon fill="#0f1315" fill-opacity="0.501961" points="165,138 165,185 97,138" />
<polygon fill="#bcc3c8" fill-opacity="0.501961" points="17,31 79,14 31,62" />
<polygon fill="#bebebd" fill-opacity="0.501961" points="14,137 -10,142 -16,135" />
<polygon fill="#e5eaef" fill-opacity="0.501961" points="253,48 143,45 209,-12" />
<polygon fill="#2c2f27" fill-opacity="0.501961" points="35,44 44,43 41,40" />
<polygon fill="#3f4649" fill-opacity="0.501961" points="10,185 -16,136 14,140" />
<polygon fill="#565b58" fill-opacity="0.501961" points="59,28 64,46 64,26" />
<polygon fill="#252f26" fill-opacity="0.501961" points="44,60 36,67 52,61" />
<polygon fill="#abb8ba" fill-opacity="0.501961" points="153,133 141,131 149,129" />
<polygon fill="#251a05" fill-opacity="0.501961" points="195,106 205,116 239,107" />
<polygon fill="#07110d" fill-opacity="0.501961" points="134,11 131,-7 129,8" />
<polygon fill="#ccd3d5" fill-opacity="0.501961" points="119,51 60,72 79,53" />
<polygon fill="#c9d2d4" fill-opacity="0.501961" points="108,129 101,133 117,132" />
<polygon fill="#020e0f" fill-opacity="0.501961" points="-16,107 3,8 21,114" />
<polygon fill="#111718" fill-opacity="0.501961" points="130,63 145,57 122,77" />
<polygon fill="#d24326" fill-opacity="0.501961" points="110,84 137,57 113,70" />
<polygon fill="#abafb3" fill-opacity="0.501961" points="153,15 106,23 155,35" />
<polygon fill="#2e2b22" fill-opacity="0.501961" points="75,104 34,115 70,116" />
<polygon fill="#cdd3d9" fill-opacity="0.501961" points="151,48 187,103 271,49" />
<polygon fill="#ced6db" fill-opacity="0.501961" points="22,101 38,70 17,73" />
<polygon fill="#071012" fill-opacity="0.501961" points="21,38 15,85 -16,30" />
<polygon fill="#813320" fill-opacity="0.501961" points="124,58 88,92 96,68" />
<polygon fill="#b54832" fill-opacity="0.501961" points="125,78 146,53 156,60" />
<polygon fill="#000000" fill-opacity="0.501961" points="35,114 42,88 43,105" />
<polygon fill="#8e959d" fill-opacity="0.501961" points="269,10 232,8 271,-4" />
<polygon fill="#898c8b" fill-opacity="0.501961" points="72,38 82,13 97,7" />
<polygon fill="#050708" fill-opacity="0.501961" points="149,128 105,124 170,111" />
<polygon fill="#d5dcdf" fill-opacity="0.501961" points="50,52 23,49 37,66" />
<polygon fill="#4f5251" fill-opacity="0.501961" points="152,133 174,167 167,132" />
<polygon fill="#717a71" fill-opacity="0.501961" points="74,68 72,62 83,70" />
<polygon fill="#e6eef1" fill-opacity="0.501961" points="59,51 67,52 66,63" />
<polygon fill="#1c0a09" fill-opacity="0.501961" points="149,129 160,72 172,94" />
<polygon fill="#190909" fill-opacity="0.501961" points="124,75 101,121 91,105" />
<polygon fill="#0e130c" fill-opacity="0.501961" points="136,33 140,48 128,28" />
<polygon fill="#d5dfe3" fill-opacity="0.501961" points="40,84 50,78 40,77" />
<polygon fill="#a5acae" fill-opacity="0.501961" points="235,57 236,104 228,82" />
<polygon fill="#000000" fill-opacity="0.501961" points="82,48 75,51 82,50" />
<polygon fill="#b9bfbe" fill-opacity="0.501961" points="165,115 172,126 156,125" />
<polygon fill="#8b9693" fill-opacity="0.501961" points="57,49 54,80 62,72" />
<polygon fill="#d4d9de" fill-opacity="0.501961" points="234,99 231,51 169,102" />
<polygon fill="#dee1e5" fill-opacity="0.501961" points="158,7 138,57 189,35" />
<polygon fill="#0e150f" fill-opacity="0.501961" points="19,56 26,57 30,61" />
</g>
</svg>