<svg xmlns="http://www.w3.org/2000/svg" version="1.1" width="820" height="1024">
<rect x="0" y="0" width="820" height="1024" fill="#4e4d33" />
<g transform="scale(4.000000) translate(0.5 0.5)">
<polygon fill="#ffece7" fill-opacity="0.501961" points="56,-16 134,5 97,132" />
<polygon fill="#140000" fill-opacity="0.501961" points="149,68 209,233 43,214" />
<polygon fill="#d8e4e8" fill-opacity="0.501961" points="58,24 110,-16 143,60" />
<polygon fill="#8c4d3c" fill-opacity="0.501961" points="51,50 103,213 125,44" />
<polygon fill="#d3dadc" fill-opacity="0.501961" points="101,257 66,214 69,271" />
<polygon fill="#ebdea8" fill-opacity="0.501961" points="97,43 88,122 109,120" />
<polygon fill="#3a0e04" fill-opacity="0.501961" points="124,238 30,83 41,195" />
<polygon fill="#181405" fill-opacity="0.501961" points="182,109 172,271 106,44" />
<polygon fill="#4a702e" fill-opacity="0.501961" points="119,-5 220,0 194,183" />
<polygon fill="#4b6475" fill-opacity="0.501961" points="155,271 159,204 92,249" />
<polygon fill="#3e6224" fill-opacity="0.501961" points="-5,258 -10,-16 74,-16" />
<polygon fill="#c1c7c3" fill-opacity="0.501961" points="70,-16 66,55 133,26" />
<polygon fill="#683935" fill-opacity="0.501961" points="32,81 89,45 88,206" />
<polygon fill="#32521a" fill-opacity="0.501961" points="14,271 20,157 74,216" />
<polygon fill="#230f05" fill-opacity="0.501961" points="44,191 192,138 110,235" />
<polygon fill="#936657" fill-opacity="0.501961" points="100,126 88,53 62,137" />
<polygon fill="#693527" fill-opacity="0.501961" points="115,178 101,44 137,59" />
<polygon fill="#32561c" fill-opacity="0.501961" points="206,126 220,260 167,271" />
<polygon fill="#cdcfcc" fill-opacity="0.501961" points="78,20 146,65 91,2" />
<polygon fill="#77876d" fill-opacity="0.501961" points="59,39 75,42 68,-16" />
<polygon fill="#0f1c09" fill-opacity="0.501961" points="152,108 164,271 192,166" />
<polygon fill="#6a755e" fill-opacity="0.501961" points="65,271 75,219 60,204" />
<polygon fill="#2e4045" fill-opacity="0.501961" points="87,244 160,189 135,243" />
<polygon fill="#363425" fill-opacity="0.501961" points="75,61 62,121 26,85" />
<polygon fill="#54221a" fill-opacity="0.501961" points="139,120 104,215 95,124" />
<polygon fill="#ded0a3" fill-opacity="0.501961" points="99,96 90,56 102,47" />
<polygon fill="#52241c" fill-opacity="0.501961" points="90,45 111,44 98,49" />
<polygon fill="#160b0b" fill-opacity="0.501961" points="145,70 126,117 130,60" />
<polygon fill="#301507" fill-opacity="0.501961" points="34,114 36,168 87,223" />
<polygon fill="#9ca498" fill-opacity="0.501961" points="134,23 115,-16 124,37" />
<polygon fill="#eddea9" fill-opacity="0.501961" points="91,107 115,106 98,100" />
<polygon fill="#0d0700" fill-opacity="0.501961" points="162,123 109,226 166,179" />
<polygon fill="#b2b2ae" fill-opacity="0.501961" points="78,271 72,234 105,255" />
<polygon fill="#283c13" fill-opacity="0.501961" points="74,243 31,262 16,241" />
<polygon fill="#73815d" fill-opacity="0.501961" points="155,82 127,19 133,59" />
<polygon fill="#5f2e27" fill-opacity="0.501961" points="128,54 116,119 110,46" />
<polygon fill="#d1b56d" fill-opacity="0.501961" points="114,115 113,123 91,118" />
<polygon fill="#ebdeab" fill-opacity="0.501961" points="113,95 101,89 88,93" />
<polygon fill="#5b2b20" fill-opacity="0.501961" points="50,163 42,66 107,219" />
<polygon fill="#4a6531" fill-opacity="0.501961" points="68,55 -2,136 56,10" />
<polygon fill="#896053" fill-opacity="0.501961" points="83,136 93,51 66,93" />
<polygon fill="#566d3d" fill-opacity="0.501961" points="157,31 119,1 220,-9" />
<polygon fill="#668646" fill-opacity="0.501961" points="46,184 35,167 39,192" />
<polygon fill="#626e6e" fill-opacity="0.501961" points="92,260 161,248 142,236" />
<polygon fill="#535a5e" fill-opacity="0.501961" points="95,249 115,245 61,207" />
<polygon fill="#411e15" fill-opacity="0.501961" points="90,107 98,114 99,107" />
<polygon fill="#c5c7c4" fill-opacity="0.501961" points="109,24 83,40 141,51" />
<polygon fill="#374a20" fill-opacity="0.501961" points="161,60 136,2 137,54" />
<polygon fill="#1d2912" fill-opacity="0.501961" points="176,230 189,244 146,242" />
<polygon fill="#6c4538" fill-opacity="0.501961" points="72,53 80,89 86,46" />
<polygon fill="#121801" fill-opacity="0.501961" points="4,195 12,177 -16,203" />
<polygon fill="#3b4d23" fill-opacity="0.501961" points="-16,93 79,-12 3,37" />
<polygon fill="#506334" fill-opacity="0.501961" points="214,219 205,258 190,167" />
<polygon fill="#607441" fill-opacity="0.501961" points="-16,85 0,119 23,90" />
<polygon fill="#d5c28f" fill-opacity="0.501961" points="112,64 87,65 97,60" />
<polygon fill="#384820" fill-opacity="0.501961" points="43,253 44,177 67,219" />
<polygon fill="#733f36" fill-opacity="0.501961" points="108,127 50,126 79,168" />
<polygon fill="#22240b" fill-opacity="0.501961" points="42,130 32,120 2,122" />
<polygon fill="#a7aea2" fill-opacity="0.501961" points="69,227 68,232 56,228" />
<polygon fill="#cdba88" fill-opacity="0.501961" points="114,82 95,79 87,85" />
<polygon fill="#fef2a3" fill-opacity="0.501961" points="110,72 102,71 107,74" />
<polygon fill="#617846" fill-opacity="0.501961" points="-4,4 43,14 25,-1" />
<polygon fill="#c7c7c5" fill-opacity="0.501961" points="90,32 127,7 67,6" />
<polygon fill="#c0c3bf" fill-opacity="0.501961" points="119,-16 61,61 115,20" />
<polygon fill="#3d4e21" fill-opacity="0.501961" points="168,136 215,89 165,111" />
<polygon fill="#35140d" fill-opacity="0.501961" points="104,215 160,129 145,86" />
<polygon fill="#343e40" fill-opacity="0.501961" points="111,250 131,223 89,227" />
<polygon fill="#1c2710" fill-opacity="0.501961" points="188,128 153,224 185,223" />
<polygon fill="#48642b" fill-opacity="0.501961" points="14,260 -16,269 22,170" />
<polygon fill="#222e10" fill-opacity="0.501961" points="55,236 39,222 69,234" />
<polygon fill="#f2e3c0" fill-opacity="0.501961" points="107,114 96,120 100,109" />
<polygon fill="#3b1d10" fill-opacity="0.501961" points="88,229 105,193 31,136" />
<polygon fill="#3a1f14" fill-opacity="0.501961" points="145,84 116,48 146,69" />
<polygon fill="#73493f" fill-opacity="0.501961" points="85,100 96,94 96,102" />
<polygon fill="#596e38" fill-opacity="0.501961" points="26,146 -10,188 36,158" />
<polygon fill="#b1afa4" fill-opacity="0.501961" points="79,35 61,19 78,11" />
<polygon fill="#94978d" fill-opacity="0.501961" points="101,243 95,257 61,249" />
<polygon fill="#b69a5f" fill-opacity="0.501961" points="110,59 102,56 107,49" />
<polygon fill="#35431d" fill-opacity="0.501961" points="33,59 61,29 -12,70" />
<polygon fill="#7c9258" fill-opacity="0.501961" points="191,81 192,96 185,79" />
<polygon fill="#bec1bb" fill-opacity="0.501961" points="81,236 80,268 73,239" />
<polygon fill="#2c3032" fill-opacity="0.501961" points="70,115 58,81 59,124" />
<polygon fill="#e8d8b1" fill-opacity="0.501961" points="99,66 98,72 87,75" />
<polygon fill="#1a130a" fill-opacity="0.501961" points="63,207 92,225 138,219" />
<polygon fill="#301d15" fill-opacity="0.501961" points="36,98 52,90 37,124" />
<polygon fill="#a2ab98" fill-opacity="0.501961" points="144,58 129,50 141,65" />
<polygon fill="#502b20" fill-opacity="0.501961" points="105,81 103,74 121,79" />
<polygon fill="#61392a" fill-opacity="0.501961" points="120,49 102,53 138,64" />
<polygon fill="#647055" fill-opacity="0.501961" points="67,26 75,42 60,38" />
<polygon fill="#faf3d7" fill-opacity="0.501961" points="91,92 102,92 93,95" />
<polygon fill="#738b52" fill-opacity="0.501961" points="203,74 210,72 199,47" />
<polygon fill="#334135" fill-opacity="0.501961" points="152,234 176,234 162,220" />
<polygon fill="#70834d" fill-opacity="0.501961" points="6,126 13,132 13,147" />
<polygon fill="#768b56" fill-opacity="0.501961" points="144,25 157,9 150,28" />
<polygon fill="#885a4d" fill-opacity="0.501961" points="93,66 75,65 72,104" />
<polygon fill="#546a37" fill-opacity="0.501961" points="38,74 34,44 68,54" />
<polygon fill="#4a5f34" fill-opacity="0.501961" points="161,37 127,36 134,27" />
<polygon fill="#0d1400" fill-opacity="0.501961" points="-16,193 5,207 -9,230" />
<polygon fill="#151e03" fill-opacity="0.501961" points="50,194 36,207 38,196" />
<polygon fill="#6d3b2d" fill-opacity="0.501961" points="114,117 111,56 122,81" />
</g>
</svg>